<?xml version="1.0" encoding="UTF-8"?>
<svg id="Layer_1" data-name="Layer 1" xmlns="http://www.w3.org/2000/svg" width="960" height="960" viewBox="0 0 960 960">
  <defs>
    <style>
      .cls-1 {
        stroke-width: 40px;
      }

      .cls-1, .cls-2 {
        fill: none;
        stroke: #000;
        stroke-linecap: round;
        stroke-linejoin: round;
      }

      .cls-2 {
        stroke-width: 20px;
      }
    </style>
  </defs>
  <path class="cls-2" d="m324.339,846.319c-70.375,0-127.63-57.344-127.63-127.83V241.511c0-70.486,57.255-127.83,127.63-127.83,3.517,0,7.089.146,10.616.435l476.648,39.005c32.08,2.625,61.76,17.106,83.572,40.776,21.812,23.669,33.824,54.432,33.824,86.619v398.967c0,32.187-12.012,62.949-33.824,86.619-21.812,23.67-51.492,38.151-83.572,40.776l-476.648,39.005c-3.528.289-7.099.435-10.616.435Z"/>
  <path class="cls-2" d="m268.984,115.336l-184.84,97.214c-38.83,20.422-63.144,60.681-63.144,104.554v325.818c0,43.859,24.298,84.107,63.109,104.536l183.541,96.609"/>
  <path class="cls-1" d="m939,280.52v398.96c0,71.76-55.06,131.51-126.58,137.37l-476.65,39c-24.29,1.99-47.53-2.43-68.12-11.78h-.01l-14.1-7.43-169.43-89.18c-38.81-20.43-63.11-60.68-63.11-104.54v-325.82c0-43.87,24.31-84.13,63.14-104.55l168.13-88.42,16.71-8.79c20.26-8.95,43.02-13.14,66.79-11.19l476.65,39c71.52,5.86,126.58,65.61,126.58,137.37Z"/>
  <path class="cls-2" d="m253.54,836.64l14.1,7.43c-4.85-2.21-9.56-4.69-14.1-7.43Z"/>
  <path class="cls-2" d="m268.98,115.34l-16.71,8.79c5.34-3.3,10.93-6.24,16.71-8.79Z"/>
</svg>