<svg xmlns="http://www.w3.org/2000/svg" viewBox="0 0 960 960"><defs><style>.cls-2,.cls-3{fill:none;stroke:#000}.cls-3{stroke-width:40px}.cls-2{stroke-width:20px}</style></defs><path d="M602.872 830.866c-86.836 0-168.554-36.311-230.103-102.245-61.922-66.334-96.025-154.63-96.025-248.622s34.103-182.288 96.025-248.622c61.548-65.934 143.267-102.245 230.103-102.245s168.555 36.311 230.104 102.245c61.923 66.333 96.025 154.629 96.025 248.622s-34.102 182.288-96.025 248.622c-61.549 65.934-143.268 102.245-230.104 102.245Z" class="cls-2"/><path d="M513.586 827.848c-97.423-31.879-302.829-98.238-324.58-105.222-36.89-11.844-70.702-33.376-98.722-63.392C45.606 611.373 21 547.701 21 479.947S45.606 348.522 90.284 300.66c26.362-28.241 57.853-48.972 92.21-61.189 23.691-8.424 258.43-83.715 316.047-102.382" class="cls-2"/><path d="M204.091 232.243c-17.702 11.727-34.248 25.753-49.34 41.911-51.239 54.893-79.458 127.921-79.458 205.635s28.218 150.731 79.458 205.624c15.225 16.314 31.95 30.439 49.829 42.233" class="cls-2"/><ellipse cx="852.891" cy="480" rx="25.66" ry="27.488"/><path fill="none" stroke="#000" stroke-linecap="round" stroke-linejoin="round" stroke-width="40" d="M122.774 480h30.812"/><path d="M939 480c0 96.53-35.06 187.25-98.71 255.45-63.47 67.98-147.78 105.42-237.42 105.42-38.79 0-76.59-7.01-112.12-20.48-103.47-33.75-281.57-91.29-301.74-97.76-36.89-11.85-70.71-33.38-98.73-63.4C45.61 611.37 21 547.7 21 479.95s24.61-131.43 69.28-179.29c26.37-28.24 57.86-48.97 92.21-61.19 22.74-8.08 239.87-77.76 308.25-99.86 35.54-13.47 73.33-20.48 112.13-20.48 89.64 0 173.95 37.44 237.42 105.42C903.94 292.75 939 383.47 939 480Z" class="cls-3"/><path d="M498.54 137.09c-2.32.75-4.93 1.59-7.8 2.52m22.85 688.24c-7.08-2.32-14.73-4.82-22.84-7.46" class="cls-3"/></svg>
