<?xml version="1.0" encoding="UTF-8"?><svg xmlns="http://www.w3.org/2000/svg" viewBox="0 0 960 960"><path fill="#000" fill-rule="nonzero" d="M901.364 358.366C840.75 147.777 634.34 13.952 417.349 44.558 200.36 75.165 39.016 260.861 39.016 480S200.36 884.835 417.35 915.442c216.991 30.606 423.402-103.22 484.015-313.808h-193.21c-43.456 0-83.61-23.184-105.338-60.817-21.728-37.634-21.728-84 0-121.634 21.728-37.633 61.882-60.817 105.338-60.817h193.21zm-193.835 20.85c-54.533 0-100.17 45.684-100.17 100.784 0 55.1 42.583 101.294 100.17 101.294h200.088c8.543-34.21 12.68-66.454 12.68-100.276 0-33.877-4.137-71.82-12.68-101.294l-200.088-.509zM0 480C0 214.903 214.903 0 480 0s480 214.903 480 480a480 480 0 01-480 480C214.903 960 0 745.097 0 480z"/></svg>