<?xml version="1.0" encoding="utf-8"?>
<svg viewBox="0 0 960 960" xmlns="http://www.w3.org/2000/svg">
  <path d="M 740.946 794.299 C 740.903 809.039 737.377 823.563 730.629 836.699 C 710.991 876.627 678.6 909.006 638.488 928.795 C 597.706 949.266 548.796 959.5 491.748 959.5 C 406.112 959.5 339.249 934.648 291.162 884.935 C 243.062 835.235 219.023 766.044 219.055 677.357 L 219.055 86.747 C 219.055 59.513 226.24 38.313 240.607 23.15 C 254.98 7.986 275.066 0.436 300.867 0.5 C 326.637 0.5 346.702 8.05 361.068 23.15 C 375.44 38.262 382.627 59.447 382.662 86.747 L 382.662 241.666 L 627.427 241.666 C 652.979 241.666 672.888 248.245 687.132 261.391 C 701.389 274.548 708.522 292.799 708.544 316.164 C 709.517 336.177 701.709 355.634 687.132 369.517 C 672.864 382.674 652.96 389.284 627.427 389.37 L 382.703 389.37 L 382.703 681.745 C 382.703 723.672 393.018 755.824 413.66 778.219 C 434.303 800.625 462.806 811.827 499.169 811.838 C 541.907 813.075 581.964 791.258 603.824 754.829 C 610.35 744.462 619.171 735.717 629.627 729.246 C 640.518 722.752 653.044 719.451 665.744 719.741 C 685.466 719.058 704.711 725.849 719.554 738.739 C 733.822 751.424 740.946 769.943 740.946 794.299 Z" id="Path_617" style=""/>
</svg>