<svg xmlns="http://www.w3.org/2000/svg" viewBox="0 0 960 960"><g fill="#000" fill-rule="evenodd"><path d="M738.9095 905.6604v27.1698c-.9854 14.5775-12.5837 26.1838-27.1512 27.1698h-463.607c-14.5676-.986-26.166-12.5923-27.1513-27.1698V49.8113C221.2457 22.4038 243.3884.2458 270.7772 0h418.4456C716.6116.2458 738.7543 22.4038 739 49.8113l-.0905 855.849ZM691.2632 886V73c0-17.6731-14.3269-32-32-32H300.7368c-17.6731 0-32 14.3269-32 32v813c0 17.6731 14.3269 32 32 32h358.5264c17.6731 0 32-14.3269 32-32Z"/><path fill-rule="nonzero" d="M412.5 313c-29.5472 0-53.5-23.9528-53.5-53.5s23.9528-53.5 53.5-53.5 53.5 23.9528 53.5 53.5-23.9528 53.5-53.5 53.5Zm0 146c-29.5472 0-53.5-23.9528-53.5-53.5s23.9528-53.5 53.5-53.5 53.5 23.9528 53.5 53.5-23.9528 53.5-53.5 53.5Zm135-146c-29.5472 0-53.5-23.9528-53.5-53.5s23.9528-53.5 53.5-53.5 53.5 23.9528 53.5 53.5a53.5 53.5 0 0 1-53.5412 53.5h.0412Zm0 146c-29.5472 0-53.5-23.9528-53.5-53.5s23.9528-53.5 53.5-53.5 53.5 23.9528 53.5 53.5a53.5 53.5 0 0 1-53.5412 53.5h.0412Zm-135 146c-29.5472 0-53.5-23.9528-53.5-53.5s23.9528-53.5 53.5-53.5 53.5 23.9528 53.5 53.5-23.9528 53.5-53.5 53.5Zm135 0c-29.5472 0-53.5-23.9528-53.5-53.5s23.9528-53.5 53.5-53.5 53.5 23.9528 53.5 53.5a53.5 53.5 0 0 1-53.5412 53.5h.0412Zm-66 150c-29.5472 0-53.5-23.9528-53.5-53.5s23.9528-53.5 53.5-53.5 53.5 23.9528 53.5 53.5-23.9528 53.5-53.5 53.5Z"/></g></svg>
