<?xml version="1.0" encoding="UTF-8"?>
<svg id="Layer_1" data-name="Layer 1" xmlns="http://www.w3.org/2000/svg" width="960" height="960" viewBox="0 0 960 960">
  <defs>
    <style>
      .cls-1 {
        stroke-linecap: round;
        stroke-width: 10px;
      }

      .cls-1, .cls-2, .cls-3 {
        fill: none;
        stroke: #000;
      }

      .cls-2 {
        stroke-width: 40px;
      }

      .cls-2, .cls-3 {
        stroke-linejoin: round;
      }

      .cls-3 {
        stroke-width: 20px;
      }
    </style>
  </defs>
  <polygon class="cls-3" points="674.77 44.376 674.77 915.624 380.034 939 380.034 21 674.77 44.376"/>
  <path d="m446.432,120.179l53.119,2.747c6.225.322,11.108,5.464,11.108,11.697v34.666c0,6.683-5.583,12.012-12.259,11.7l-53.119-2.479c-6.25-.292-11.167-5.444-11.167-11.7v-34.934c0-6.707,5.62-12.044,12.318-11.697Z"/>
  <path d="m621.019,141.547v33.987c0,6.683-5.583,12.012-12.259,11.7l-53.119-2.479c-6.25-.292-11.167-5.444-11.167-11.7v-34.255c0-6.707,5.62-12.044,12.318-11.697l53.119,2.747c6.225.322,11.108,5.464,11.108,11.697Z"/>
  <path d="m446.258,210.942l53.119,1.959c6.297.232,11.281,5.404,11.281,11.705v41.456c0,6.595-5.443,11.89-12.036,11.709l-53.119-1.463c-6.341-.175-11.391-5.365-11.391-11.709v-41.952c0-6.638,5.511-11.95,12.145-11.705Z"/>
  <path d="m621.019,229.537v40.202c0,6.595-5.443,11.89-12.036,11.709l-53.119-1.463c-6.341-.175-11.391-5.365-11.391-11.709v-40.698c0-6.638,5.511-11.95,12.145-11.705l53.119,1.959c6.297.232,11.281,5.404,11.281,11.705Z"/>
  <path d="m446.033,308.894l53.119.935c6.388.112,11.507,5.323,11.507,11.711v38.345c0,6.509-5.307,11.769-11.815,11.713l-53.119-.463c-6.429-.056-11.611-5.284-11.611-11.713v-38.816c0-6.55,5.371-11.827,11.919-11.711Z"/>
  <path d="m621.019,323.906v37.15c0,6.509-5.307,11.769-11.815,11.713l-53.119-.463c-6.429-.056-11.611-5.284-11.611-11.713v-37.622c0-6.55,5.371-11.826,11.919-11.711l53.119.935c6.388.112,11.507,5.323,11.507,11.711Z"/>
  <path d="m445.827,398.009h53.119c6.469,0,11.713,5.244,11.713,11.713v38.124c0,6.428-5.181,11.656-11.609,11.713l-53.119.472c-6.509.058-11.817-5.203-11.817-11.713v-38.596c0-6.469,5.244-11.713,11.713-11.713Z"/>
  <path d="m621.019,409.722v36.941c0,6.428-5.181,11.656-11.609,11.713l-53.119.472c-6.509.058-11.817-5.203-11.817-11.713v-37.413c0-6.469,5.244-11.713,11.713-11.713h53.119c6.469,0,11.713,5.244,11.713,11.713Z"/>
  <path d="m445.621,487.153l53.119-.935c6.549-.115,11.919,5.162,11.919,11.711v40.214c0,6.344-5.051,11.535-11.392,11.709l-53.119,1.455c-6.592.181-12.034-5.114-12.034-11.709v-40.734c0-6.389,5.119-11.599,11.507-11.711Z"/>
  <path d="m621.019,496.554v38.908c0,6.414-5.158,11.635-11.571,11.712l-53.119.642c-6.524.079-11.855-5.188-11.855-11.712v-39.428c0-6.458,5.228-11.698,11.686-11.713l53.119-.122c6.479-.015,11.74,5.234,11.74,11.713Z"/>
  <path d="m445.574,585.276l53.119-1.146c6.566-.142,11.966,5.142,11.966,11.71v37.707c0,6.325-5.022,11.508-11.344,11.707l-53.119,1.674c-6.61.208-12.082-5.094-12.082-11.707v-38.235c0-6.37,5.091-11.573,11.46-11.71Z"/>
  <path d="m621.019,591.093v36.348c0,6.256-4.916,11.408-11.165,11.7l-53.119,2.487c-6.677.313-12.261-5.016-12.261-11.7v-36.876c0-6.301,4.985-11.473,11.281-11.705l53.119-1.959c6.634-.245,12.145,5.067,12.145,11.705Z"/>
  <path d="m500.379,672.781l53.119-2.105c6.646-.263,12.177,5.053,12.177,11.704v38.496c0,6.25-4.907,11.399-11.149,11.699l-53.119,2.56c-6.683.322-12.277-5.009-12.277-11.699v-38.951c0-6.288,4.966-11.455,11.249-11.704Z"/>
  <polygon points="535.314 65.651 535.314 111.48 520.626 110.497 520.626 64.582 535.314 65.651"/>
  <line class="cls-3" x1="380.034" y1="780.928" x2="674.77" y2="765.576"/>
  <path class="cls-1" d="m475.49,806.702c-8.707,11.539-13.595,25.538-13.955,40.233-.432,17.646,5.726,34.61,17.342,47.806"/>
  <path class="cls-1" d="m581.467,801.867c.126.132.239.275.365.407,11.756,13.223,17.982,30.282,17.548,48.034-.351,14.356-5.045,28.067-13.385,39.462"/>
  <path class="cls-1" d="m492.092,819.177c-6.115,8.111-9.554,17.939-9.807,28.266-.301,12.307,3.955,24.139,11.99,33.358"/>
  <path class="cls-1" d="m566.07,815.808c.08.084.16.18.24.264,8.256,9.282,12.626,21.258,12.321,33.729-.245,10-3.478,19.54-9.226,27.496"/>
  <path class="cls-1" d="m508.693,831.651c-3.524,4.659-5.502,10.328-5.648,16.3-.17,6.955,2.173,13.644,6.626,18.897"/>
  <path class="cls-1" d="m550.674,829.737c.046.036.08.084.126.132,4.732,5.33,7.246,12.222,7.07,19.423-.138,5.632-1.91,11.002-5.078,15.506"/>
  <path d="m530.201,859.125c-2.6-.064-5.021-1.211-6.815-3.23-1.806-2.032-2.762-4.701-2.693-7.515s1.155-5.433,3.058-7.374c1.891-1.929,4.365-2.957,6.965-2.893,2.6.064,5.021,1.211,6.815,3.23,1.806,2.032,2.762,4.701,2.693,7.515-.069,2.815-1.155,5.433-3.058,7.374-1.891,1.929-4.365,2.957-6.965,2.893Z"/>
  <polyline class="cls-3" points="380.034 21 285.23 80.164 285.23 880.801 380.034 939"/>
  <polygon class="cls-2" points="674.77 44.38 674.77 915.62 380.03 939 285.23 880.8 285.23 80.16 380.03 21 674.77 44.38"/>
</svg>