<svg xmlns="http://www.w3.org/2000/svg" viewBox="0 0 960 960"><defs><style>.cls-3{fill:none;stroke:#000;stroke-linejoin:round;stroke-width:20px}</style></defs><path d="M674.77 44.376v871.248L380.034 939V21L674.77 44.376z" class="cls-3"/><path d="m446.432 120.179 53.119 2.747c6.225.322 11.108 5.464 11.108 11.697v34.666c0 6.683-5.583 12.012-12.259 11.7l-53.119-2.479c-6.25-.292-11.167-5.444-11.167-11.7v-34.934c0-6.707 5.62-12.044 12.318-11.697Zm174.587 21.368v33.987c0 6.683-5.583 12.012-12.259 11.7l-53.119-2.479c-6.25-.292-11.167-5.444-11.167-11.7V138.8c0-6.707 5.62-12.044 12.318-11.697l53.119 2.747c6.225.322 11.108 5.464 11.108 11.697Zm-174.761 69.395 53.119 1.959c6.297.232 11.281 5.404 11.281 11.705v41.456c0 6.595-5.443 11.89-12.036 11.709l-53.119-1.463c-6.341-.175-11.391-5.365-11.391-11.709v-41.952c0-6.638 5.511-11.95 12.145-11.705Zm174.761 18.595v40.202c0 6.595-5.443 11.89-12.036 11.709l-53.119-1.463c-6.341-.175-11.391-5.365-11.391-11.709v-40.698c0-6.638 5.511-11.95 12.145-11.705l53.119 1.959c6.297.232 11.281 5.404 11.281 11.705Zm-174.986 79.357 53.119.935c6.388.112 11.507 5.323 11.507 11.711v38.345c0 6.509-5.307 11.769-11.815 11.713l-53.119-.463c-6.429-.056-11.611-5.284-11.611-11.713v-38.816c0-6.55 5.371-11.827 11.919-11.711Zm174.986 15.012v37.15c0 6.509-5.307 11.769-11.815 11.713l-53.119-.463c-6.429-.056-11.611-5.284-11.611-11.713v-37.622c0-6.55 5.371-11.826 11.919-11.711l53.119.935c6.388.112 11.507 5.323 11.507 11.711Zm-175.192 74.103h53.119c6.469 0 11.713 5.244 11.713 11.713v38.124c0 6.428-5.181 11.656-11.609 11.713l-53.119.472c-6.509.058-11.817-5.203-11.817-11.713v-38.596c0-6.469 5.244-11.713 11.713-11.713Zm175.192 11.713v36.941c0 6.428-5.181 11.656-11.609 11.713l-53.119.472c-6.509.058-11.817-5.203-11.817-11.713v-37.413c0-6.469 5.244-11.713 11.713-11.713h53.119c6.469 0 11.713 5.244 11.713 11.713Zm-175.398 77.431 53.119-.935c6.549-.115 11.919 5.162 11.919 11.711v40.214c0 6.344-5.051 11.535-11.392 11.709l-53.119 1.455c-6.592.181-12.034-5.114-12.034-11.709v-40.734c0-6.389 5.119-11.599 11.507-11.711Zm175.398 9.401v38.908c0 6.414-5.158 11.635-11.571 11.712l-53.119.642c-6.524.079-11.855-5.188-11.855-11.712v-39.428c0-6.458 5.228-11.698 11.686-11.713l53.119-.122c6.479-.015 11.74 5.234 11.74 11.713Zm-175.445 88.722 53.119-1.146c6.566-.142 11.966 5.142 11.966 11.71v37.707c0 6.325-5.022 11.508-11.344 11.707l-53.119 1.674c-6.61.208-12.082-5.094-12.082-11.707v-38.235c0-6.37 5.091-11.573 11.46-11.71Zm175.445 5.817v36.348c0 6.256-4.916 11.408-11.165 11.7l-53.119 2.487c-6.677.313-12.261-5.016-12.261-11.7v-36.876c0-6.301 4.985-11.473 11.281-11.705l53.119-1.959c6.634-.245 12.145 5.067 12.145 11.705Zm-120.64 81.688 53.119-2.105c6.646-.263 12.177 5.053 12.177 11.704v38.496c0 6.25-4.907 11.399-11.149 11.699l-53.119 2.56c-6.683.322-12.277-5.009-12.277-11.699v-38.951c0-6.288 4.966-11.455 11.249-11.704Zm34.935-607.13v45.829l-14.688-.983V64.582l14.688 1.069z"/><path fill="none" stroke="#000" stroke-linecap="round" stroke-width="10" d="M475.49 806.702c-8.707 11.539-13.595 25.538-13.955 40.233-.432 17.646 5.726 34.61 17.342 47.806m102.59-92.874c.126.132.239.275.365.407 11.756 13.223 17.982 30.282 17.548 48.034-.351 14.356-5.045 28.067-13.385 39.462m-93.903-70.593c-6.115 8.111-9.554 17.939-9.807 28.266-.301 12.307 3.955 24.139 11.99 33.358m71.795-64.993c.08.084.16.18.24.264 8.256 9.282 12.626 21.258 12.321 33.729-.245 10-3.478 19.54-9.226 27.496m-60.712-45.646c-3.524 4.659-5.502 10.328-5.648 16.3-.17 6.955 2.173 13.644 6.626 18.897m41.003-37.111c.046.036.08.084.126.132 4.732 5.33 7.246 12.222 7.07 19.423-.138 5.632-1.91 11.002-5.078 15.506"/><path d="M530.201 859.125c-2.6-.064-5.021-1.211-6.815-3.23-1.806-2.032-2.762-4.701-2.693-7.515s1.155-5.433 3.058-7.374c1.891-1.929 4.365-2.957 6.965-2.893 2.6.064 5.021 1.211 6.815 3.23 1.806 2.032 2.762 4.701 2.693 7.515-.069 2.815-1.155 5.433-3.058 7.374-1.891 1.929-4.365 2.957-6.965 2.893Z"/><path d="M380.034 21 285.23 80.164v800.637L380.034 939" class="cls-3"/><path fill="none" stroke="#000" stroke-linejoin="round" stroke-width="40" d="M674.77 44.38v871.24L380.03 939l-94.8-58.2V80.16L380.03 21l294.74 23.38z"/></svg>
